HIERARCHY
ROOT hip
{
  OFFSET 138.939 70.6413 194.134
  CHANNELS 6 Xposition Yposition Zposition Zrotation Xrotation Yrotation
  JOINT abdomen
  {
    OFFSET 0 20.6881 -0.73152
    CHANNELS 3 Zrotation Xrotation Yrotation
    JOINT chest
    {
      OFFSET 0 11.7043 -0.48768
      CHANNELS 3 Zrotation Xrotation Yrotation
      JOINT neck
      {
        OFFSET 0 22.1894 -2.19456
        CHANNELS 3 Zrotation Xrotation Yrotation
        JOINT head
        {
          OFFSET -0.24384 7.07133 1.2192
          CHANNELS 3 Zrotation Xrotation Yrotation
          JOINT leftEye
          {
            OFFSET 4.14528 8.04674 8.04672
            CHANNELS 3 Zrotation Xrotation Yrotation
            End Site
            {
              OFFSET 1 0 0
            }
          }
          JOINT rightEye
          {
            OFFSET -3.6576 8.04674 8.04672
            CHANNELS 3 Zrotation Xrotation Yrotation
            End Site
            {
              OFFSET 1 0 0
            }
          }
        }
      }
      JOINT rCollar
      {
        OFFSET -2.68224 19.2634 -4.8768
        CHANNELS 3 Zrotation Xrotation Yrotation
        JOINT rShldr
        {
          OFFSET -8.77824 -1.95073 1.46304
          CHANNELS 3 Zrotation Xrotation Yrotation
          JOINT rForeArm
          {
            OFFSET -28.1742 -1.7115 0.48768
            CHANNELS 3 Zrotation Xrotation Yrotation
            JOINT rHand
            {
              OFFSET -22.5879 0.773209 7.07136
              CHANNELS 3 Zrotation Xrotation Yrotation
              JOINT rThumb1
              {
                OFFSET -1.2192 -0.487915 3.41376
                CHANNELS 3 Zrotation Xrotation Yrotation
                JOINT rThumb2
                {
                  OFFSET -3.37035 -0.52449 3.41376
                  CHANNELS 3 Zrotation Xrotation Yrotation
                  End Site
                  {
                    OFFSET -1.78271 -1.18214 1.43049
                  }
                }
              }
              JOINT rIndex1
              {
                OFFSET -7.75947 0.938293 5.60832
                CHANNELS 3 Zrotation Xrotation Yrotation
                JOINT rIndex2
                {
                  OFFSET -2.54057 -0.884171 1.56538
                  CHANNELS 3 Zrotation Xrotation Yrotation
                  End Site
                  {
                    OFFSET -1.62519 -0.234802 1.16502
                  }
                }
              }
              JOINT rMid1
              {
                OFFSET -8.24714 1.18213 3.41376
                CHANNELS 3 Zrotation Xrotation Yrotation
                JOINT rMid2
                {
                  OFFSET -3.10165 -0.590103 1.0647
                  CHANNELS 3 Zrotation Xrotation Yrotation
                  End Site
                  {
                    OFFSET -2.48547 -0.328903 0.83742
                  }
                }
              }
              JOINT rRing1
              {
                OFFSET -8.82822 0.546677 1.51678
                CHANNELS 3 Zrotation Xrotation Yrotation
                JOINT rRing2
                {
                  OFFSET -2.60934 -0.819778 -0.0198488
                  CHANNELS 3 Zrotation Xrotation Yrotation
                  End Site
                  {
                    OFFSET -2.33842 -0.294052 0.168128
                  }
                }
              }
              JOINT rPinky1
              {
                OFFSET -8.27202 -0.0477905 -0.4584
                CHANNELS 3 Zrotation Xrotation Yrotation
                JOINT rPinky2
                {
                  OFFSET -1.82734 -0.647385 -0.700984
                  CHANNELS 3 Zrotation Xrotation Yrotation
                  End Site
                  {
                    OFFSET -1.69225 -0.51767 -0.607171
                  }
                }
              }
            }
          }
        }
      }
      JOINT lCollar
      {
        OFFSET 2.68224 19.2634 -4.8768
        CHANNELS 3 Zrotation Xrotation Yrotation
        JOINT lShldr
        {
          OFFSET 8.77824 -1.95073 1.46304
          CHANNELS 3 Zrotation Xrotation Yrotation
          JOINT lForeArm
          {
            OFFSET 28.1742 -1.7115 0.48768
            CHANNELS 3 Zrotation Xrotation Yrotation
            JOINT lHand
            {
              OFFSET 22.5879 0.773209 7.07136
              CHANNELS 3 Zrotation Xrotation Yrotation
              JOINT lThumb1
              {
                OFFSET 1.2192 -0.487915 3.41376
                CHANNELS 3 Zrotation Xrotation Yrotation
                JOINT lThumb2
                {
                  OFFSET 3.37035 -0.52449 3.41376
                  CHANNELS 3 Zrotation Xrotation Yrotation
                  End Site
                  {
                    OFFSET 1.78271 -1.18214 1.43049
                  }
                }
              }
              JOINT lIndex1
              {
                OFFSET 7.75947 0.938293 5.60832
                CHANNELS 3 Zrotation Xrotation Yrotation
                JOINT lIndex2
                {
                  OFFSET 2.54057 -0.884171 1.56538
                  CHANNELS 3 Zrotation Xrotation Yrotation
                  End Site
                  {
                    OFFSET 1.62519 -0.234802 1.16502
                  }
                }
              }
              JOINT lMid1
              {
                OFFSET 8.24714 1.18213 3.41376
                CHANNELS 3 Zrotation Xrotation Yrotation
                JOINT lMid2
                {
                  OFFSET 3.10165 -0.590103 1.0647
                  CHANNELS 3 Zrotation Xrotation Yrotation
                  End Site
                  {
                    OFFSET 2.48547 -0.328903 0.83742
                  }
                }
              }
              JOINT lRing1
              {
                OFFSET 8.82822 0.546677 1.51678
                CHANNELS 3 Zrotation Xrotation Yrotation
                JOINT lRing2
                {
                  OFFSET 2.60934 -0.819778 -0.0198488
                  CHANNELS 3 Zrotation Xrotation Yrotation
                  End Site
                  {
                    OFFSET 2.33842 -0.294052 0.168128
                  }
                }
              }
              JOINT lPinky1
              {
                OFFSET 8.27202 -0.0477905 -0.4584
                CHANNELS 3 Zrotation Xrotation Yrotation
                JOINT lPinky2
                {
                  OFFSET 1.82734 -0.647385 -0.700984
                  CHANNELS 3 Zrotation Xrotation Yrotation
                  End Site
                  {
                    OFFSET 1.69225 -0.51767 -0.607171
                  }
                }
              }
            }
          }
        }
      }
    }
  }
  JOINT rButtock
  {
    OFFSET -8.77824 4.35084 1.2192
    CHANNELS 3 Zrotation Xrotation Yrotation
    JOINT rThigh
    {
      OFFSET 0 -1.70687 -2.19456
      CHANNELS 3 Zrotation Xrotation Yrotation
      JOINT rShin
      {
        OFFSET 0 -36.8199 0.73152
        CHANNELS 3 Zrotation Xrotation Yrotation
        JOINT rFoot
        {
          OFFSET 0.73152 -45.1104 -5.12064
          CHANNELS 3 Zrotation Xrotation Yrotation
          End Site
          {
            OFFSET -1.1221 -3.69964 12.103
          }
        }
      }
    }
  }
  JOINT lButtock
  {
    OFFSET 8.77824 4.35084 1.2192
    CHANNELS 3 Zrotation Xrotation Yrotation
    JOINT lThigh
    {
      OFFSET 0 -1.70687 -2.19456
      CHANNELS 3 Zrotation Xrotation Yrotation
      JOINT lShin
      {
        OFFSET 0 -36.8199 0.73152
        CHANNELS 3 Zrotation Xrotation Yrotation
        JOINT lFoot
        {
          OFFSET -0.73152 -45.1104 -5.12064
          CHANNELS 3 Zrotation Xrotation Yrotation
          End Site
          {
            OFFSET 1.1221 -3.69964 12.103
          }
        }
      }
    }
  }
}
MOTION
Frames:	6
Frame Time:	0.00833333
-37.5125 66.1917 42.8044 -14.723 -12.5813 39.469 22.0818 29.5342 -3.28122 2.34296 -10.131 0.987793 2.08321 -3.39793 4.20891 -14.3385 -9.99982 6.59053 -0 0 0 -0 0 0 -1.60589e-013 -1.11323e-014 3.4673e-013 72.9813 41.0936 7.86945 -28.4033 -36.9491 78.6091 -0.196313 -12.5237 -1.78896 -5.37708e-010 -1.10771e-009 -1.58948e-010 -9.34103e-010 -1.91544e-009 -2.7408e-010 -5.37707e-010 -1.10772e-009 -1.58958e-010 7.73091 5.47488 0.417314 -5.37711e-010 -1.10771e-009 -1.58951e-010 2.90554 0.965183 0.102902 -5.37708e-010 -1.10771e-009 -1.58951e-010 10.2786 0.731801 0.0259123 -5.37712e-010 -1.10771e-009 -1.58939e-010 2.22167 -0.733487 -0.20892 -1.60658e-013 -1.11323e-014 3.46581e-013 -97.2342 46.341 16.3209 27.9484 -30.3128 -67.7481 0.044726 -6.02477 0.849892 4.17941e-010 2.10557e-010 -1.3449e-009 7.24039e-010 3.63785e-010 -2.31989e-009 4.17926e-010 2.10558e-010 -1.34488e-009 -7.73091 5.47488 -0.417314 4.17941e-010 2.10557e-010 -1.3449e-009 -2.90554 0.965183 -0.102902 4.17932e-010 2.10556e-010 -1.3449e-009 -10.2786 0.731801 -0.0259123 4.1795e-010 2.10559e-010 -1.34491e-009 -2.22167 -0.733487 0.20892 -2.03217e-016 0 -3.88251e-019 -9.81538 -17.2598 -7.23139 -0.503984 53.0977 1.99173 -6.66289 -20.5144 -13.5292 2.03217e-016 0 3.88251e-019 37.6478 -68.3201 37.0193 29.4731 87.8713 -29.7703 -2.95973 -5.52881 -12.0998 
-36.6543 66.3278 44.8621 -15.174 -12.4354 40.2923 21.8051 29.1288 -2.5624 2.25306 -10.2026 1.1203 2.00372 -3.51855 3.81858 -13.9171 -9.98101 5.86339 -0 0 0 -0 0 0 -2.97467e-013 5.04034e-014 5.63707e-013 71.2059 41.4778 9.24148 -28.3596 -37.8188 80.0489 -0.202789 -12.7296 -1.81933 -7.97903e-010 -7.2588e-012 -1.07688e-009 -1.37683e-009 -8.79907e-012 -1.86266e-009 -7.97902e-010 -7.2698e-012 -1.07689e-009 7.73091 5.47488 0.417314 -7.97906e-010 -7.25714e-012 -1.07688e-009 2.90554 0.965183 0.102902 -7.97902e-010 -7.25731e-012 -1.07688e-009 10.2786 0.731801 0.0259123 -7.97906e-010 -7.25647e-012 -1.07687e-009 2.22167 -0.733487 -0.20892 -2.97567e-013 5.04044e-014 5.63551e-013 -97.0573 44.3068 17.9883 27.9127 -30.1704 -67.6048 0.0534324 -6.42591 0.907163 3.66251e-010 -5.53346e-010 -1.98341e-009 6.34931e-010 -9.58906e-010 -3.42015e-009 3.66239e-010 -5.53344e-010 -1.98339e-009 -7.73091 5.47488 -0.417314 3.66252e-010 -5.53346e-010 -1.98341e-009 -2.90554 0.965183 -0.102902 3.66242e-010 -5.53347e-010 -1.98341e-009 -10.2786 0.731801 -0.0259123 3.6626e-010 -5.53347e-010 -1.98342e-009 -2.22167 -0.733487 0.20892 -2.03217e-016 0 -3.88251e-019 -8.94176 -15.0826 -7.82318 -0.454985 51.9075 2.00725 -7.34286 -21.1322 -14.6319 2.03217e-016 0 3.88251e-019 37.5026 -68.9661 38.1378 13.1055 85.5822 -13.3986 -2.68578 -5.47042 -11.5047 
-35.7346 66.503 46.9428 -15.6173 -12.2518 41.2005 21.5045 28.6023 -1.90164 2.15651 -10.2289 1.22653 1.94243 -3.61469 3.42903 -13.4875 -9.89602 5.14212 -0 0 0 -0 0 0 -3.71802e-013 3.42896e-014 8.42915e-013 69.7169 41.6014 10.1094 -28.2808 -38.7317 81.5828 -0.213617 -13.0574 -1.86784 -1.24427e-009 1.50421e-009 -2.07516e-009 -2.13912e-009 2.61887e-009 -3.59442e-009 -1.24427e-009 1.5042e-009 -2.07517e-009 7.73091 5.47488 0.417314 -1.24427e-009 1.50421e-009 -2.07516e-009 2.90554 0.965183 0.102902 -1.24427e-009 1.50421e-009 -2.07516e-009 10.2786 0.731801 0.0259123 -1.24427e-009 1.50421e-009 -2.07515e-009 2.22167 -0.733487 -0.20892 -3.71963e-013 3.42901e-014 8.42744e-013 -96.563 42.6293 19.6961 27.9482 -30.3736 -67.9336 0.054019 -6.45338 0.911107 2.00637e-010 -1.07389e-009 -2.71646e-009 3.49766e-010 -1.85898e-009 -4.68484e-009 2.0063e-010 -1.07389e-009 -2.71643e-009 -7.73091 5.47488 -0.417314 2.00638e-010 -1.07389e-009 -2.71646e-009 -2.90554 0.965183 -0.102902 2.00627e-010 -1.07389e-009 -2.71646e-009 -10.2786 0.731801 -0.0259123 2.00644e-010 -1.07389e-009 -2.71647e-009 -2.22167 -0.733487 0.20892 -2.03217e-016 0 -3.88251e-019 -7.93357 -12.6721 -8.17941 -0.394116 50.287 2.0079 -8.06461 -21.4735 -15.9312 2.03217e-016 0 3.88251e-019 36.4377 -69.5231 38.3941 7.77063 82.941 -8.05135 -2.47571 -5.16383 -11.2584 
-34.7594 66.7068 49.0414 -16.0873 -12.0784 42.1712 21.2235 27.9535 -1.30908 2.08044 -10.1946 1.31127 1.87551 -3.69334 3.03953 -13.0093 -9.76837 4.43186 -0 0 0 -0 0 0 -4.17612e-013 3.00532e-014 1.07283e-012 68.5516 41.5301 10.4875 -28.1628 -39.5805 83.0908 -0.226982 -13.4463 -1.92558 -1.71198e-009 2.87658e-009 -2.99006e-009 -2.93854e-009 5.00812e-009 -5.18281e-009 -1.71198e-009 2.87658e-009 -2.99007e-009 7.73091 5.47488 0.417314 -1.71198e-009 2.87658e-009 -2.99006e-009 2.90554 0.965183 0.102902 -1.71198e-009 2.87658e-009 -2.99006e-009 10.2786 0.731801 0.0259123 -1.71198e-009 2.87658e-009 -2.99005e-009 2.22167 -0.733487 -0.20892 -4.17836e-013 3.00531e-014 1.07264e-012 -95.9114 41.3305 21.3575 28.0202 -30.7729 -68.5341 0.0520534 -6.40819 0.904575 6.12537e-011 -1.45928e-009 -3.23036e-009 1.09205e-010 -2.52548e-009 -5.57108e-009 6.12524e-011 -1.45928e-009 -3.23033e-009 -7.73091 5.47488 -0.417314 6.12536e-011 -1.45929e-009 -3.23036e-009 -2.90554 0.965183 -0.102902 6.12431e-011 -1.45929e-009 -3.23036e-009 -10.2786 0.731801 -0.0259123 6.12588e-011 -1.45929e-009 -3.23037e-009 -2.22167 -0.733487 0.20892 -2.03217e-016 0 -3.88251e-019 -6.78058 -10.2234 -8.34362 -0.331109 48.4888 1.99649 -8.65861 -21.4552 -17.1382 2.03217e-016 0 3.88251e-019 34.7482 -69.9556 37.9476 5.35583 80.258 -5.62105 -2.29859 -4.69535 -11.2086 
-33.7341 66.9388 51.163 -16.6153 -11.9607 43.1824 21.0039 27.1813 -0.794151 2.05201 -10.0841 1.37936 1.77893 -3.76149 2.64931 -12.4436 -9.62178 3.73749 -0 0 0 -0 0 0 -4.68916e-013 1.27221e-013 1.14192e-012 67.7296 41.3216 10.4013 -28.026 -40.275 84.4158 -0.240686 -13.8356 -1.98356 -2.03619e-009 3.55975e-009 -3.65784e-009 -3.49266e-009 6.19949e-009 -6.34127e-009 -2.03619e-009 3.55976e-009 -3.65784e-009 7.73091 5.47488 0.417314 -2.03619e-009 3.55976e-009 -3.65784e-009 2.90554 0.965183 0.102902 -2.03618e-009 3.55976e-009 -3.65783e-009 10.2786 0.731801 0.0259123 -2.03619e-009 3.55976e-009 -3.65783e-009 2.22167 -0.733487 -0.20892 -4.6918e-013 1.27222e-013 1.14172e-012 -95.273 40.4354 22.8928 28.0966 -31.2221 -69.2035 0.0535829 -6.59133 0.9305 8.82556e-011 -1.81773e-009 -3.21142e-009 1.53912e-010 -3.14744e-009 -5.53599e-009 8.8258e-011 -1.81773e-009 -3.21139e-009 -7.73091 5.47488 -0.417314 8.82551e-011 -1.81773e-009 -3.21142e-009 -2.90554 0.965183 -0.102902 8.82453e-011 -1.81773e-009 -3.21142e-009 -10.2786 0.731801 -0.0259123 8.82596e-011 -1.81774e-009 -3.21143e-009 -2.22167 -0.733487 0.20892 -2.03217e-016 0 -3.88251e-019 -5.47059 -7.93036 -8.35243 -0.275562 46.7653 1.97469 -8.94685 -21.005 -17.9628 2.03217e-016 0 3.88251e-019 32.773 -70.2188 36.9982 4.07625 77.7789 -4.32837 -2.12303 -4.15098 -11.2026 
-32.6458 67.1946 53.2968 -17.2453 -11.9127 44.2582 20.8731 26.2206 -0.351746 2.086 -9.85799 1.43113 1.63688 -3.81493 2.24572 -11.75 -9.46748 3.04181 -0 0 0 -0 0 0 -5.46262e-013 4.23495e-013 9.56158e-013 67.2523 40.9402 9.79828 -27.8949 -40.8741 85.5578 -0.255788 -14.2605 -2.04696 -2.20334e-009 3.15467e-009 -4.03541e-009 -3.77891e-009 5.50083e-009 -6.99436e-009 -2.20334e-009 3.15468e-009 -4.03542e-009 7.73091 5.47488 0.417314 -2.20334e-009 3.15468e-009 -4.03541e-009 2.90554 0.965183 0.102902 -2.20333e-009 3.15468e-009 -4.03541e-009 10.2786 0.731801 0.0259123 -2.20334e-009 3.15468e-009 -4.0354e-009 2.22167 -0.733487 -0.20892 -5.46533e-013 4.235e-013 9.55955e-013 -94.7086 40.0836 24.3884 28.1743 -31.7327 -69.9773 0.0615973 -7.11908 1.00563 4.18214e-010 -2.19235e-009 -2.37126e-009 7.18443e-010 -3.801e-009 -4.08029e-009 4.18218e-010 -2.19235e-009 -2.37123e-009 -7.73091 5.47488 -0.417314 4.18213e-010 -2.19236e-009 -2.37126e-009 -2.90554 0.965183 -0.102902 4.18206e-010 -2.19236e-009 -2.37126e-009 -10.2786 0.731801 -0.0259123 4.18218e-010 -2.19236e-009 -2.37126e-009 -2.22167 -0.733487 0.20892 -2.03217e-016 0 -3.88251e-019 -3.88996 -5.71295 -8.12911 -0.227505 44.9951 1.94188 -8.97032 -20.1239 -18.5295 2.03217e-016 0 3.88251e-019 30.5645 -70.314 35.5375 3.27756 75.4717 -3.52062 -1.94056 -3.35524 -11.3761 
